HIERARCHY
ROOT Hips
{
	OFFSET	0.00	0.00	0.00
	CHANNELS 6 Xposition Yposition Zposition Zrotation Xrotation Yrotation
	JOINT Spine
	{
		OFFSET	 0.00	0.01	 0.00
		CHANNELS 3 Zrotation Xrotation Yrotation
		JOINT Spine1
		{
			OFFSET	 0.00	 2.45913012437421	 0.00
			CHANNELS 3 Zrotation Xrotation Yrotation
            JOINT Neck
            {
                OFFSET	 0.00	 2.48462964506057	 0.00
                CHANNELS 3 Zrotation Xrotation Yrotation
                JOINT Head
                {
                    OFFSET	 0.00	 0.927524780924562	 0.00
                    CHANNELS 3 Zrotation Xrotation Yrotation
                    End Site 
                    {
                        OFFSET	 0.00	 1.14999962169752	 0.00
                    }
                }
            }
			JOINT LeftShoulder
			{
				OFFSET	 0.00	 2.48462964506057	 0.00
				CHANNELS 3 Zrotation Xrotation Yrotation
				JOINT LeftUpArm
				{
					OFFSET	 0.00	 1.24881979654096	 0.00
					CHANNELS 3 Zrotation Xrotation Yrotation
					JOINT LeftForeArm
					{
						OFFSET	 0.00	2.59758046908119	 0.00
						CHANNELS 3 Zrotation Xrotation Yrotation
						JOINT LeftHand
						{
							OFFSET	 0.00	2.45542024364365	 0.00
							CHANNELS 3 Zrotation Xrotation Yrotation
							JOINT LeftHandThumb 
							{
								OFFSET	 0.00	0.00	 0.00
								CHANNELS 3 Zrotation Xrotation Yrotation
								End Site
								{
									OFFSET	 0.00	0.00	1.00000003353624
								}
							}
							JOINT L_Wrist_End 
							{
								OFFSET	 0.00	0.99999967115358	 0.00
								CHANNELS 3 Zrotation Xrotation Yrotation
								End Site 
								{
									OFFSET	 0.00	 0.00	 0.00
								}
							}
						}
					}
				}
			}
			JOINT RightShoulder
			{
				OFFSET	 0.00	 2.48462964506057	 0.00
				CHANNELS 3 Zrotation Xrotation Yrotation
				JOINT RightUpArm
				{
					OFFSET	 0.00	 1.24881979654096	 0.00
					CHANNELS 3 Zrotation Xrotation Yrotation
					JOINT RightForeArm
					{
						OFFSET	 0.00	2.59758046908119	 0.00
						CHANNELS 3 Zrotation Xrotation Yrotation
						JOINT RightHand
						{
							OFFSET	 0.00	2.45542024364365	 0.00
							CHANNELS 3 Zrotation Xrotation Yrotation
							JOINT RightHandThumb 
							{
								OFFSET	 0.00	0.00	 0.00
								CHANNELS 3 Zrotation Xrotation Yrotation
								End Site
								{
									OFFSET	 0.00	0.00	1.00000003353624
								}
							}
							JOINT R_Wrist_End 
							{
								OFFSET	 0.00	0.99999967115358	 0.00
								CHANNELS 3 Zrotation Xrotation Yrotation
								End Site 
								{
									OFFSET	 0.00	 0.00	 0.00
								}
							}
						}
					}
				}
			}
		}
	}
	JOINT LeftUpLeg
	{
		OFFSET	 1.2719394002717	 0.00	 0.00
		CHANNELS 3 Zrotation Xrotation Yrotation
		JOINT LeftLowLeg
		{
			OFFSET	 0.00	-4.3429100912261	 0.00
			CHANNELS 3 Zrotation Xrotation Yrotation
			JOINT LeftFoot
			{
				OFFSET	 0.00	-4.48767017425826	 0.00
				CHANNELS 3 Zrotation Xrotation Yrotation
				JOINT LeftToeBase
                {
                    OFFSET	 0.00	0.00	 1.51507020887566
                    CHANNELS 3 Zrotation Xrotation Yrotation
                    End Site 
                    {
                        OFFSET	 0.00	0.00	 0.75000010571191
                    }
                }
			}
		}
	}
	JOINT RightUpLeg
	{
		OFFSET	 -1.2719393604653	 0.00	 0.00
		CHANNELS 3 Zrotation Xrotation Yrotation
		JOINT RightLowLeg
		{
			OFFSET	 0.00	-4.3429100912261	 0.00
			CHANNELS 3 Zrotation Xrotation Yrotation
			JOINT RightFoot
			{
				OFFSET	 0.00	-4.48767017425826	 0.00
				CHANNELS 3 Zrotation Xrotation Yrotation
				JOINT RightToeBase
                {
                    OFFSET	 0.00	0.00	 1.51507020887566
                    CHANNELS 3 Zrotation Xrotation Yrotation
                    End Site 
                    {
                        OFFSET	 0.00	0.00	 0.749999965609858
                    }
                }   
			}
		}
	}
}
MOTION 
Frames:	17 
Frame Time: 0.02 
  4.144039916992187 1.6617399597167968 9.572009887695312 176.075 53.2793 174.52 4.45674 30.4126 -4.81026 -4.55944 9.36663 6.015 -4.07671 8.52912 4.65442 11.9019 -64.0385 2.59002 -99.03735 13.0649 10.1211 -34.0707 56.3664 -10.5233 0.0 48.2058 0.0 12.5353 -19.3308 -52.3232 0.0 0.0 0.0 0.0 0.0 0.0 101.5614 11.0775 -6.6408 29.8102 60.1306 7.18678 0.0 44.7558 0.0 -6.8437 -16.1848 44.5531 0.0 0.0 0.0 0.0 0.0 0.0 2.61338 -55.5597 4.9146 0.0 26.5025 0.0 -6.75085 8.52799 -0.360552 0.0 -39.091698 0.0 -9.18933 -47.6398 -4.28882 0.0 23.0201 0.0 16.0442 9.73225 7.07452 0.0 -28.2171 0.0 
  4.129440002441406 1.649600067138672 9.577999877929688 176.368 54.3699 174.115 4.36321 29.3596 -4.75469 -4.46714 9.52186 6.02891 -4.1116 8.88074 4.89169 12.0067 -63.4123 2.53016 -99.50783 12.7068 10.5276 -34.7868 55.3182 -8.87004 0.0 48.9069 0.0 12.3083 -19.1838 -51.8291 0.0 0.0 0.0 0.0 0.0 0.0 102.0809 10.9826 -7.18241 30.0918 59.2531 5.23556 0.0 45.1858 0.0 -6.9036 -16.217 45.6955 0.0 0.0 0.0 0.0 0.0 0.0 2.91559 -54.1906 5.08748 0.0 26.2497 0.0 -6.8449 8.33838 -0.331886 0.0 -38.9617 0.0 -8.60666 -46.2363 -3.95415 0.0 22.4839 0.0 15.705 9.86887 6.95744 0.0 -28.3041 0.0 
  4.11406005859375 1.6397099304199219 9.581400146484375 176.524 55.1112 173.751 4.08177 28.0208 -4.55745 -4.24841 9.76756 6.06712 -3.91907 8.9025 4.95567 11.7681 -62.704 2.45448 -99.90204 12.2678 10.7869 -35.6423 54.4084 -7.28524 0.0 49.6998 0.0 12.021 -19.1505 -52.0307 0.0 0.0 0.0 0.0 0.0 0.0 102.1511 10.6965 -7.48817 31.0849 58.6117 3.04868 0.0 45.5542 0.0 -6.87994 -16.4577 46.3614 0.0 0.0 0.0 0.0 0.0 0.0 3.2459 -53.1872 5.28703 0.0 26.0125 0.0 -6.98877 8.09474 -0.254094 0.0 -38.8289 0.0 -8.06952 -45.2587 -3.492 0.0 22.0357 0.0 15.4854 9.93055 6.81385 0.0 -28.2751 0.0 
  4.104869995117188 1.6266600036621093 9.587080078125 176.934 56.4148 173.38 4.23528 27.3236 -4.71451 -4.26884 10.1366 6.03833 -3.78626 8.58329 5.11668 11.6245 -62.0943 2.40657 -100.1576 11.7466 10.7881 -36.6036 53.4309 -5.62857 0.0 50.7362 0.0 12.0872 -19.2541 -52.2157 0.0 0.0 0.0 0.0 0.0 0.0 102.508 10.267 -7.78626 31.6102 58.2366 1.09548 0.0 46.0275 0.0 -6.99021 -16.7097 46.4406 0.0 0.0 0.0 0.0 0.0 0.0 3.2191 -51.68 4.83253 0.0 25.8215 0.0 -7.17531 8.013269 -0.0217197 0.0 -38.7892 0.0 -7.70942 -43.6186 -3.33043 0.0 21.5406 0.0 15.3556 10.10043 6.87144 0.0 -28.3429 0.0 
  4.092380065917968 1.617550048828125 9.59405029296875 177.136 57.5292 173.09 4.1188 26.5451 -4.71182 -4.22272 10.5728 5.99348 -3.49771 7.97333 5.21162 11.2671 -61.2115 2.1923 -99.92244 11.2722 9.5191 -39.1627 51.6876 -2.59773 0.0 51.9682 0.0 12.4635 -19.2624 -52.1419 0.0 0.0 0.0 0.0 0.0 0.0 102.4896 9.77364 -7.5196 33.1349 57.6783 -1.62695 0.0 46.6872 0.0 -7.36923 -16.8633 46.0248 0.0 0.0 0.0 0.0 0.0 0.0 3.3266 -50.4192 4.74513 0.0 25.7439 0.0 -7.33588 8.00305 0.0476457 0.0 -38.705 0.0 -7.37955 -42.3718 -2.97217 0.0 21.3064 0.0 15.1636 10.25704 6.83465 0.0 -28.4043 0.0 
  4.0842898559570315 1.6106900024414061 9.60822021484375 176.688 58.4917 173.452 3.92659 25.8251 -4.81509 -4.44492 10.5837 5.74902 -2.82651 7.99697 5.12978 10.9432 -60.5396 2.49298 -100.2558 10.5285 9.93593 -39.0807 51.1689 -1.74582 0.0 52.8175 0.0 12.6428 -19.3512 -51.6336 0.0 0.0 0.0 0.0 0.0 0.0 102.984604 9.61109 -7.9447 33.2084 57.0876 -3.06807 0.0 47.536 0.0 -7.71949 -16.9906 46.0337 0.0 0.0 0.0 0.0 0.0 0.0 2.43125 -48.8023 2.38533 0.0 24.5481 0.0 -8.16376 8.248011 1.43867 0.0 -38.5019 0.0 -7.54914 -41.3893 -2.85273 0.0 21.1877 0.0 14.9575 10.424789 6.82736 0.0 -28.5245 0.0 
  4.054190063476563 1.5985699462890626 9.600659790039062 178.337 59.5165 171.495 3.99075 24.8659 -4.61544 -4.22453 11.066 6.0578 -2.34488 7.91033 5.20258 10.6393 -59.5259 2.59835 -100.7353 9.7512 11.219 -37.846 51.2864 -1.94153 0.0 53.5626 0.0 12.6787 -19.3973 -52.2963 0.0 0.0 0.0 0.0 0.0 0.0 103.3247 9.46984 -8.45276 33.149 56.538 -4.23956 0.0 48.4923 0.0 -7.6524 -17.359 46.2654 0.0 0.0 0.0 0.0 0.0 0.0 5.63381 -48.5228 9.94584 0.0 26.7371 0.0 -6.09613 7.80952 -2.75036 0.0 -39.0173 0.0 -5.93464 -40.0528 -1.62867 0.0 20.7807 0.0 14.5585 10.53565 6.36905 0.0 -28.586601 0.0 
  4.046029968261719 1.5897200012207031 9.615079956054688 178.132 60.2725 171.805 3.95993 23.9477 -4.80842 -4.33582 11.158 5.84137 -1.93168 7.93914 5.29138 10.5578 -58.8774 2.80788 -100.973404 9.30958 11.4665 -37.847 50.5067 -1.10147 0.0 54.3258 0.0 12.7376 -19.5224 -52.9878 0.0 0.0 0.0 0.0 0.0 0.0 103.8069 9.38211 -9.43097 32.1874 56.0782 -4.43541 0.0 49.5357 0.0 -7.23185 -17.5713 47.2334 0.0 0.0 0.0 0.0 0.0 0.0 4.69068 -47.0494 7.77587 0.0 25.3115 0.0 -6.82514 8.10664 -1.66149 0.0 -38.7985 0.0 -6.10896 -39.011 -1.69185 0.0 20.3224 0.0 14.3978 10.660191 6.30263 0.0 -28.5433 0.0 
  4.043070068359375 1.582209930419922 9.634039916992187 177.716 61.1623 172.419 4.03712 23.2772 -5.07446 -4.66819 11.1794 5.60226 -1.37373 7.77316 5.30532 10.3953 -58.1362 2.95007 -101.088104 8.92201 11.493 -38.0574 49.6172 0.0185516 0.0 55.1245 0.0 12.5048 -19.6519 -53.5688 0.0 0.0 0.0 0.0 0.0 0.0 104.3211 9.16352 -9.63432 32.2244 55.2464 -5.70109 0.0 50.6233 0.0 -7.37546 -17.7829 46.5591 0.0 0.0 0.0 0.0 0.0 0.0 3.09385 -45.1375 3.48314 0.0 23.2068 0.0 -8.13521 8.49872 0.847466 0.0 -38.2971 0.0 -6.51667 -37.7931 -1.91225 0.0 19.7558 0.0 14.3448 10.8900795 6.26902 0.0 -28.5473 0.0 
  4.016109924316407 1.5419900512695313 9.647100219726562 -178.233 64.736 169.47 5.57107 24.5859 -6.03914 -4.87978 12.5623 5.58689 -0.825096 7.83753 5.31541 10.7406 -58.5073 3.54292 -101.5398 8.79013 10.4199 -38.4108 47.8879 1.76219 0.0 55.9823 0.0 12.4568 -19.6201 -54.2196 0.0 0.0 0.0 0.0 0.0 0.0 105.4182 9.18682 -9.26755 31.9371 53.8971 -7.06056 0.0 51.8708 0.0 -7.2316 -17.8262 46.4542 0.0 0.0 0.0 0.0 0.0 0.0 4.11488 -41.4196 4.42616 0.0 23.5375 0.0 -7.64438 8.31631 -0.585676 0.0 -38.4115 0.0 -5.18493 -32.6683 -2.32962 0.0 18.0891 0.0 13.5569 11.52459 5.96923 0.0 -28.8274 0.0 
  4.0002899169921875 1.5399099731445312 9.657269897460937 -178.695 65.0149 169.638 4.96859 23.3366 -5.69129 -4.60396 12.6859 5.61078 -0.594836 7.45757 5.37858 10.4117 -57.4986 3.35021 -101.5791 8.14685 11.0267 -38.4747 47.8327 2.47598 0.0 56.6077 0.0 12.1255 -20.1055 -54.2762 0.0 0.0 0.0 0.0 0.0 0.0 105.3705 8.49263 -9.66909 32.4054 53.6519 -8.09859 0.0 52.754 0.0 -7.12602 -17.6685 46.5998 0.0 0.0 0.0 0.0 0.0 0.0 4.11407 -40.756 4.54092 0.0 22.9079 0.0 -7.78434 8.54183 -0.409425 0.0 -38.3211 0.0 -5.10663 -32.4281 -1.75099 0.0 17.9664 0.0 13.4724 11.65111 5.74698 0.0 -28.8326 0.0 
  3.9827801513671877 1.527570037841797 9.665250244140625 -178.412 65.6086 169.302 4.76495 22.2928 -5.56597 -4.43275 12.8744 5.65066 -0.403492 7.41094 5.42624 10.3267 -56.9897 3.31451 -101.684 7.70512 10.913 -39.0412 46.9984 3.97793 0.0 57.2462 0.0 12.198 -20.1987 -54.9611 0.0 0.0 0.0 0.0 0.0 0.0 105.495804 8.00454 -9.77403 33.0909 52.8473 -9.37533 0.0 53.8108 0.0 -6.68966 -17.675 47.6173 0.0 0.0 0.0 0.0 0.0 0.0 4.21022 -39.8031 4.46711 0.0 22.4691 0.0 -7.86928 8.52337 -0.281308 0.0 -38.228203 0.0 -4.89626 -31.5506 -1.61312 0.0 17.5606 0.0 13.2744 11.80149 5.7114 0.0 -28.8709 0.0 
  3.96625 1.5091000366210938 9.6714697265625 -178.057 66.4103 168.936 4.65621 21.3372 -5.52994 -4.40695 13.1077 5.65411 0.0928336 7.65006 5.23159 10.0672 -56.833 3.50415 -101.8809 7.36763 10.7986 -39.3241 45.9995 5.30084 0.0 57.8398 0.0 12.0503 -20.3593 -55.5766 0.0 0.0 0.0 0.0 0.0 0.0 105.9196 7.80934 -9.97891 33.1083 51.6984 -10.273 0.0 54.9824 0.0 -6.25947 -17.3649 49.1199 0.0 0.0 0.0 0.0 0.0 0.0 4.27018 -38.6025 4.54821 0.0 22.0189 0.0 -7.94668 8.46859 -0.333674 0.0 -38.2123 0.0 -4.77235 -30.3693 -1.79609 0.0 17.0912 0.0 12.9963 11.88129 5.91786 0.0 -28.8388 0.0 
  3.9517401123046874 1.492449951171875 9.676900024414062 -177.993 67.1711 168.708 4.38227 20.4724 -5.40387 -4.27627 13.2154 5.65509 0.414053 7.66643 5.173 9.73956 -56.5779 3.77248 -102.1853 6.88601 10.7467 -39.4881 45.1071 6.59121 0.0 58.457 0.0 11.7483 -20.4097 -56.4104 0.0 0.0 0.0 0.0 0.0 0.0 106.1961 7.49588 -10.0051 33.3281 50.714 -11.4606 0.0 56.0776 0.0 -5.75089 -17.4314 49.7788 0.0 0.0 0.0 0.0 0.0 0.0 4.31368 -37.4589 4.81316 0.0 21.5987 0.0 -8.01207 8.444059 -0.407573 0.0 -38.1041 0.0 -4.67559 -29.3647 -1.63506 0.0 16.7405 0.0 12.7474 11.89501 5.94221 0.0 -28.8876 0.0 
  3.938760070800781 1.4769999694824218 9.681420288085938 -177.894 68.0039 168.459 4.13641 19.7054 -5.32197 -4.11262 13.3262 5.62819 0.518501 7.50894 5.22328 9.51724 -56.0884 3.82508 -102.4532 6.40492 10.6531 -39.711 44.1764 7.75283 0.0 59.0754 0.0 11.3082 -20.4548 -57.0507 0.0 0.0 0.0 0.0 0.0 0.0 106.4367 7.06847 -10.0943 33.5473 50.0164 -12.5879 0.0 56.9939 0.0 -5.72679 -17.5039 49.6405 0.0 0.0 0.0 0.0 0.0 0.0 4.30979 -36.3665 4.8666 0.0 21.3708 0.0 -8.12201 8.43429 -0.388252 0.0 -38.081 0.0 -4.58443 -28.3213 -1.40141 0.0 16.4352 0.0 12.5905 11.89466 5.88579 0.0 -28.925701 0.0 
  3.9243399047851564 1.4597700500488282 9.685490112304688 -177.454 68.9314 168.0 4.02299 19.0616 -5.36261 -3.95919 13.3865 5.54024 0.749098 7.58288 5.24043 9.26233 -55.6805 4.00127 -102.6907 5.97756 10.5507 -39.9857 43.0807 8.69584 0.0 59.7211 0.0 10.8369 -20.2982 -57.7129 0.0 0.0 0.0 0.0 0.0 0.0 106.6421 6.67807 -10.0398 34.0417 49.2304 -14.0025 0.0 57.7846 0.0 -5.49812 -17.5695 51.048 0.0 0.0 0.0 0.0 0.0 0.0 4.2331 -35.2756 4.28137 0.0 21.3437 0.0 -8.3419 8.298059 0.0249398 0.0 -38.007797 0.0 -4.43545 -27.1629 -1.16956 0.0 16.2048 0.0 12.5091 11.87772 5.75705 0.0 -28.9485 0.0 
  3.910719909667969 1.4478599548339843 9.689459838867187 -177.311 69.5516 167.683 3.83049 18.2362 -5.30953 -3.87223 13.3013 5.505 1.03973 7.68688 5.27831 9.05467 -55.1626 4.16687 -102.8122 5.5279 10.5261 -40.3216 42.0515 9.51365 0.0 60.4359 0.0 10.7876 -20.2984 -57.7022 0.0 0.0 0.0 0.0 0.0 0.0 106.7072 6.30246 -9.85803 34.7044 48.3765 -15.5783 0.0 58.6609 0.0 -5.09238 -17.8745 51.8063 0.0 0.0 0.0 0.0 0.0 0.0 4.23228 -34.5159 3.97816 0.0 21.3306 0.0 -8.5237 8.18638 0.384869 0.0 -37.9809 0.0 -4.28678 -26.5348 -0.775868 0.0 16.243 0.0 12.4115 11.85785 5.58767 0.0 -29.0569 0.0 
